<?xml version="1.0" encoding="UTF-8"?>
<svg id="Camada_2" data-name="Camada 2" xmlns="http://www.w3.org/2000/svg" viewBox="0 0 905.33 192.23">
  <defs>
    <style>
      .cls-1 {
        fill: #fff;
      }
    </style>
  </defs>
  <g id="Camada_1-2" data-name="Camada 1">
    <g>
      <path class="cls-1" d="M407.21,138.66h-106.36c-4.98,0-6.71-4.03-3.86-9.02l55.72-97.63c3.92-6.85,1.52-12.43-5.32-12.43h-28.51c-6.85,0-15.59,5.58-19.5,12.43l-38.19,66.89-20.56,36.01c-3.91,6.86-1.52,12.43,5.32,12.43h17.63c4.98,0,6.71,4.03,3.86,9.01l-13.26,23.24c-3.91,6.86-1.52,12.43,5.34,12.43h117.21c6.85,0,15.61-5.57,19.52-12.43l16.27-28.51c3.91-6.85,1.52-12.41-5.32-12.41ZM228.95,98.89h-105.11c-5.03,0-11.46-2.04-14.37-7.07-1.73-2.99-1.73-7.88,0-10.87,2.9-5.03,9.34-7.07,14.37-7.07h110.06c6.9,0,15.78-5.64,19.78-12.55l16.61-28.8c3.99-6.92,1.63-12.53-5.29-12.53h-115.73c-6.92,0-15.78,5.62-19.78,12.53l-10.29,17.81c-2.9,5.03-9.34,9.11-14.37,9.11h-61.56c-6.92,0-15.78,5.62-19.78,12.55l-8.32,14.4-8.32,14.38c-3.98,6.92-1.61,12.55,5.31,12.55h92.66c5.03,0,11.46,2.04,14.37,7.09.86,1.5,1.3,3.46,1.3,5.43s-.43,3.92-1.3,5.43c-2.9,5.03-9.34,7.07-14.37,7.07H38.35c-6.92,0-15.8,5.64-19.79,12.55L1.94,179.68c-3.99,6.93-1.62,12.55,5.31,12.55h72.16c6.92,0,15.8-5.62,19.78-12.55l10.29-17.79c2.9-5.03,9.34-9.11,14.37-9.11h102.95c2.54,0,2.52-1.16,1.95-2.2-3.49-6.41-3.3-14.3,1.02-21.89l8.18-14.32c3.94-6.9-1.04-15.48-8.99-15.48Z"/>
      <g>
        <g>
          <path class="cls-1" d="M463.18,36.13c0-2.24.43-4.36,1.29-6.38.86-2.01,2.03-3.78,3.52-5.31,1.49-1.53,3.24-2.72,5.26-3.58,2.01-.86,4.14-1.29,6.38-1.29h50.11v7.83h-50.11c-2.39,0-4.44.86-6.15,2.57s-2.57,3.77-2.57,6.15.86,4.55,2.57,6.26c1.72,1.72,3.76,2.57,6.15,2.57h44.97c2.24,0,4.36.43,6.38,1.29,2.01.86,3.76,2.05,5.26,3.58,1.49,1.53,2.67,3.3,3.52,5.31.86,2.01,1.29,4.14,1.29,6.38s-.43,4.47-1.29,6.49c-.86,2.01-2.03,3.77-3.52,5.26-1.49,1.49-3.24,2.69-5.26,3.58-2.01.89-4.14,1.34-6.38,1.34h-61.41v-7.83h61.41c2.39,0,4.44-.86,6.15-2.57,1.71-1.72,2.57-3.8,2.57-6.26s-.86-4.44-2.57-6.15c-1.72-1.71-3.77-2.57-6.15-2.57h-44.97c-2.24,0-4.36-.45-6.38-1.34-2.01-.89-3.77-2.09-5.26-3.58-1.49-1.49-2.67-3.24-3.52-5.26-.86-2.01-1.29-4.18-1.29-6.49Z"/>
          <path class="cls-1" d="M633.32,19.58c2.61,0,5.03.5,7.27,1.51,2.24,1.01,4.21,2.37,5.93,4.08,1.72,1.72,3.06,3.71,4.03,5.99.97,2.28,1.45,4.72,1.45,7.33v39.71h-7.72v-39.71c0-1.57-.28-3.02-.84-4.36-.56-1.34-1.34-2.52-2.35-3.52s-2.18-1.81-3.52-2.41c-1.34-.6-2.76-.89-4.25-.89h-25.95v50.9h-7.72V27.29h-36.91v50.9h-7.72V19.58h78.3Z"/>
          <path class="cls-1" d="M689.25,39.93h40.05c3.43,0,6.56.86,9.4,2.57l1.79,1.01v-4.81c0-1.57-.3-3.02-.89-4.36-.6-1.34-1.4-2.53-2.41-3.58-1.01-1.04-2.18-1.86-3.52-2.46-1.34-.6-2.8-.9-4.36-.9h-47.65v-7.83h47.65c2.61,0,5.05.5,7.33,1.51,2.27,1.01,4.27,2.37,5.98,4.08,1.72,1.72,3.08,3.75,4.08,6.1,1.01,2.35,1.51,4.83,1.51,7.44v39.49h-7.72v-3.58l-1.79,1.01c-2.83,1.72-5.97,2.57-9.4,2.57h-40.05c-2.61,0-5.05-.5-7.33-1.51-2.28-1.01-4.27-2.39-5.98-4.14-1.72-1.75-3.08-3.78-4.08-6.1-1.01-2.31-1.51-4.77-1.51-7.38s.5-5.18,1.51-7.49c1.01-2.31,2.37-4.32,4.08-6.04,1.72-1.71,3.71-3.08,5.98-4.08,2.27-1.01,4.72-1.51,7.33-1.51ZM678.07,59.06c0,1.57.3,3.02.89,4.36.6,1.34,1.4,2.54,2.4,3.58,1.01,1.05,2.18,1.86,3.52,2.46,1.34.6,2.8.89,4.36.89h40.05c1.57,0,3.02-.3,4.36-.89,1.34-.6,2.52-1.42,3.52-2.46,1.01-1.04,1.81-2.24,2.41-3.58.6-1.34.89-2.8.89-4.36s-.3-3.04-.89-4.42c-.6-1.38-1.4-2.57-2.41-3.58s-2.18-1.81-3.52-2.41c-1.34-.6-2.8-.89-4.36-.89h-40.05c-1.57,0-3.02.3-4.36.89-1.34.6-2.52,1.4-3.52,2.41-1.01,1.01-1.81,2.2-2.4,3.58-.6,1.38-.89,2.85-.89,4.42Z"/>
          <path class="cls-1" d="M778.63,19.58v3.58l1.68-1.01c2.83-1.72,5.93-2.57,9.28-2.57h24.89v7.72h-24.89c-1.49,0-2.89.28-4.19.84-1.31.56-2.46,1.34-3.47,2.35-1.01,1.01-1.81,2.18-2.4,3.52-.6,1.34-.89,2.8-.89,4.36v39.82h-7.72V19.58h7.72Z"/>
          <path class="cls-1" d="M837.19,0h7.72v19.58h18.51v7.83h-18.51v31.77c0,1.57.28,3.02.84,4.36.56,1.34,1.34,2.54,2.35,3.58,1.01,1.05,2.18,1.87,3.52,2.46,1.34.6,2.76.89,4.25.89h17.51v7.72h-17.51c-2.54,0-4.94-.5-7.22-1.51-2.28-1.01-4.27-2.37-5.98-4.08-1.72-1.72-3.06-3.73-4.03-6.04-.97-2.31-1.45-4.77-1.45-7.38V0Z"/>
        </g>
        <g>
          <path class="cls-1" d="M585.79,152.41c0-1.26-.23-2.42-.71-3.53-.49-1.13-1.12-2.07-1.93-2.88-.82-.81-1.75-1.45-2.85-1.94-1.05-.46-2.21-.7-3.45-.7h-40.05c-1.26,0-2.39.23-3.46.7-1.1.49-2.03,1.13-2.85,1.94-.8.8-1.45,1.77-1.93,2.88-.48,1.11-.71,2.26-.71,3.53s.23,2.39.7,3.45c.49,1.1,1.15,2.08,1.97,2.93.81.84,1.74,1.49,2.82,1.97,1.06.47,2.19.7,3.45.7h40.05c1.25,0,2.41-.24,3.45-.7,1.09-.48,2.01-1.13,2.82-1.97.82-.85,1.48-1.84,1.98-2.94.47-1.06.7-2.19.7-3.45Z"/>
          <path class="cls-1" d="M777.63,156.1c.45-1.11.68-2.31.68-3.58v-20.69c0-2.55-.83-4.63-2.55-6.37-1.7-1.73-3.76-2.58-6.29-2.58h-39.71c-1.19,0-2.28.23-3.34.7-1.08.48-2.04,1.13-2.85,1.94s-1.42,1.73-1.87,2.8c-.45,1.08-.67,2.22-.67,3.5v20.69c0,1.27.23,2.47.68,3.58.45,1.11,1.06,2.03,1.86,2.84.81.81,1.77,1.46,2.85,1.94,1.06.47,2.15.7,3.34.7h39.71c1.25,0,2.41-.24,3.45-.7,1.08-.48,2.04-1.13,2.85-1.94.8-.8,1.41-1.73,1.86-2.84Z"/>
          <path class="cls-1" d="M676.99,123.8c-1.06-.47-2.19-.7-3.45-.7h-40.27c-1.26,0-2.39.23-3.46.7-1.09.49-2.05,1.14-2.85,1.94-.8.8-1.45,1.77-1.93,2.89-.48,1.1-.71,2.26-.71,3.53v20.13c0,1.27.23,2.43.71,3.53.49,1.13,1.15,2.13,1.96,2.97.8.83,1.75,1.5,2.82,1.97,1.06.47,2.19.7,3.45.7h40.27c1.26,0,2.39-.23,3.46-.7,1.07-.48,2.02-1.14,2.82-1.97.82-.84,1.48-1.84,1.96-2.97.48-1.11.71-2.26.71-3.53v-20.13c0-1.27-.23-2.42-.71-3.53-.48-1.11-1.13-2.08-1.93-2.88-.8-.8-1.76-1.46-2.85-1.94Z"/>
          <path class="cls-1" d="M887.43,92.23h-412.05c-1.24,0-2.24,1-2.24,2.24v58.06c0,1.26.22,2.44.67,3.5.45,1.08,1.09,2.05,1.89,2.88.81.85,1.74,1.49,2.82,1.97,1.06.47,2.15.7,3.34.7h19.74v12.19h-19.74c-2.84,0-5.57-.57-8.12-1.7-2.52-1.12-4.76-2.65-6.66-4.55-1.91-1.91-3.43-4.18-4.51-6.76-1.08-2.57-1.63-5.35-1.63-8.25v-60.29h-.56c-9.88,0-17.9,8.01-17.9,17.9v64.21c0,9.88,8.01,17.9,17.9,17.9h160.75c1.24,0,2.24-1,2.24-2.24v-7.83h50.17c1.25,0,2.39-.24,3.49-.75,1.1-.51,2.07-1.2,2.88-2.06.82-.88,1.46-1.89,1.91-3.01.45-1.11.68-2.31.68-3.58v-.89c-2.88,1.35-5.86,2.01-8.95,2.01h-40.27c-2.91,0-5.69-.57-8.28-1.7-2.57-1.12-4.84-2.67-6.75-4.63-1.9-1.94-3.43-4.24-4.54-6.83-1.12-2.62-1.69-5.46-1.69-8.43v-20.13c0-2.98.57-5.8,1.7-8.39,1.12-2.56,2.64-4.83,4.54-6.77,1.91-1.95,4.18-3.51,6.75-4.62,2.58-1.13,5.37-1.7,8.27-1.7h40.27c3.11,0,6.12.67,8.95,2v-2h12.3v62.08c0,2.98-.57,5.81-1.69,8.43-1.11,2.59-2.64,4.89-4.54,6.84-.11.11-.22.23-.34.34-1.45,1.42-.51,3.86,1.52,3.86h197.68c9.88,0,17.9-8.01,17.9-17.9v-64.21c0-9.88-8.01-17.9-17.9-17.9ZM597.98,173.77h-12.19v-2.02c-2.73,1.33-5.74,2.02-8.95,2.02h-40.05c-2.91,0-5.68-.57-8.23-1.7-2.52-1.12-4.77-2.67-6.68-4.62-1.9-1.94-3.42-4.21-4.54-6.77-1.13-2.58-1.7-5.37-1.7-8.28s.57-5.8,1.7-8.39c1.12-2.56,2.65-4.83,4.55-6.73,1.9-1.9,4.14-3.43,6.66-4.55,2.55-1.13,5.32-1.7,8.23-1.7h40.05c3.19,0,6.19.68,8.95,2.02v-1.01c0-1.24-.24-2.41-.7-3.46-.49-1.11-1.14-2.07-1.97-2.94-.81-.84-1.73-1.48-2.82-1.97-1.05-.47-2.21-.7-3.45-.7h-49.89v-12.3h49.89c2.91,0,5.68.57,8.23,1.7,2.51,1.11,4.75,2.64,6.66,4.54,1.91,1.91,3.44,4.2,4.56,6.8,1.12,2.62,1.69,5.42,1.69,8.32v41.72ZM790.5,152.52c0,2.91-.57,5.69-1.7,8.28-1.11,2.55-2.62,4.81-4.48,6.71-1.86,1.91-4.09,3.45-6.62,4.56-2.55,1.13-5.32,1.7-8.23,1.7h-39.71c-2.84,0-5.57-.57-8.12-1.7-2.52-1.12-4.76-2.65-6.66-4.55-1.91-1.91-3.43-4.18-4.51-6.76-1.08-2.57-1.63-5.35-1.63-8.25v-20.69c0-2.9.55-5.66,1.63-8.2,1.08-2.53,2.59-4.78,4.5-6.69s4.15-3.44,6.66-4.55c2.55-1.13,5.28-1.7,8.12-1.7h39.71c2.91,0,5.68.57,8.23,1.7,2.52,1.11,4.75,2.65,6.62,4.56,1.86,1.91,3.36,4.14,4.48,6.65,1.13,2.55,1.7,5.32,1.7,8.23v20.69ZM885.41,162.23c-.97,2.27-2.31,4.28-4,5.96-1.67,1.68-3.67,3.04-5.93,4.04-2.3,1.02-4.75,1.53-7.29,1.53h-63.65v-12.3h63.65c1.78,0,3.28-.63,4.57-1.92,1.29-1.29,1.92-2.82,1.92-4.68s-.63-3.28-1.92-4.57c-1.29-1.29-2.78-1.91-4.57-1.91h-44.97c-2.54,0-4.99-.52-7.29-1.54-2.26-1-4.25-2.36-5.93-4.04-1.69-1.68-3.03-3.69-4-5.96-.97-2.28-1.47-4.76-1.47-7.36s.49-4.97,1.47-7.25c.96-2.26,2.3-4.28,3.98-6,1.69-1.73,3.7-3.1,5.98-4.08,2.29-.97,4.73-1.47,7.25-1.47h52.35v12.3h-52.35c-1.78,0-3.28.63-4.57,1.92-1.29,1.29-1.92,2.79-1.92,4.57s.63,3.39,1.92,4.68c1.29,1.29,2.78,1.92,4.57,1.92h44.97c2.53,0,4.96.49,7.25,1.47,2.27.97,4.28,2.34,5.98,4.07,1.68,1.72,3.02,3.74,3.98,6,.97,2.29,1.47,4.73,1.47,7.25s-.49,5.08-1.46,7.36Z"/>
        </g>
      </g>
    </g>
  </g>
</svg>