<?xml version="1.0" encoding="UTF-8"?>
<svg id="Camada_2" data-name="Camada 2" xmlns="http://www.w3.org/2000/svg" viewBox="0 0 511.58 213.14">
  <defs>
    <style>
      .cls-1 {
        fill: #fff;
      }
    </style>
  </defs>
  <g id="Camada_1-2" data-name="Camada 1">
    <path class="cls-1" d="M282.63,97.91h-129.75c-6.21,0-14.15-2.52-17.73-8.73-2.13-3.69-2.13-9.73,0-13.42,3.59-6.21,11.52-8.73,17.73-8.73h135.86c8.52,0,19.48-6.96,24.41-15.49l20.51-35.56c4.93-8.54,2.01-15.47-6.53-15.47h-142.86c-8.54,0-19.48,6.94-24.41,15.47l-12.7,21.98c-3.59,6.21-11.52,11.25-17.73,11.25H53.43c-8.54,0-19.49,6.94-24.41,15.49l-10.27,17.78-10.27,17.76c-4.91,8.54-1.98,15.49,6.55,15.49h114.39c6.21,0,14.15,2.52,17.73,8.75,1.07,1.86,1.6,4.27,1.6,6.7s-.53,4.84-1.6,6.7c-3.59,6.21-11.52,8.73-17.73,8.73H47.34c-8.54,0-19.51,6.96-24.44,15.49L2.39,197.64c-4.93,8.56-2.01,15.49,6.55,15.49h89.08c8.54,0,19.51-6.94,24.41-15.49l12.7-21.96c3.59-6.21,11.52-11.25,17.73-11.25h127.09c3.13,0,3.11-1.43,2.41-2.71-4.31-7.91-4.08-17.65,1.26-27.02l10.09-17.68c4.86-8.52-1.29-19.11-11.1-19.11ZM502.69,147h-131.29c-6.15,0-8.28-4.97-4.76-11.14L435.42,15.34c4.84-8.45,1.88-15.34-6.57-15.34h-35.19c-8.45,0-19.25,6.89-24.07,15.34l-47.14,82.57-25.38,44.45c-4.82,8.47-1.88,15.34,6.57,15.34h21.77c6.15,0,8.28,4.97,4.76,11.12l-16.37,28.68c-4.82,8.47-1.88,15.34,6.59,15.34h144.7c8.45,0,19.27-6.87,24.09-15.34l20.08-35.19c4.82-8.45,1.88-15.32-6.57-15.32Z"/>
  </g>
</svg>