<?xml version="1.0" encoding="UTF-8"?>
<svg id="Camada_2" data-name="Camada 2" xmlns="http://www.w3.org/2000/svg" viewBox="0 0 462.84 303.36">
  <defs>
    <style>
      .cls-1 {
        fill: #1d26fe;
      }
    </style>
  </defs>
  <g id="Camada_1-2" data-name="Camada 1">
    <g>
      <path class="cls-1" d="M242.44,40.22h-53.29c-2.55,0-5.81-1.03-7.28-3.59-.88-1.52-.88-4,0-5.51,1.47-2.55,4.73-3.59,7.28-3.59h55.8c3.5,0,8-2.86,10.03-6.36l8.42-14.6c2.02-3.51.82-6.36-2.68-6.36h-58.68c-3.51,0-8,2.85-10.03,6.36l-5.22,9.03c-1.47,2.55-4.73,4.62-7.28,4.62h-31.21c-3.51,0-8,2.85-10.03,6.36l-4.22,7.3-4.22,7.29c-2.02,3.51-.82,6.36,2.69,6.36h46.98c2.55,0,5.81,1.03,7.28,3.59.44.76.66,1.75.66,2.75s-.22,1.99-.66,2.75c-1.47,2.55-4.73,3.59-7.28,3.59h-33.71c-3.51,0-8.01,2.86-10.04,6.36l-8.42,14.59c-2.02,3.52-.82,6.36,2.69,6.36h36.59c3.51,0,8.01-2.85,10.03-6.36l5.22-9.02c1.47-2.55,4.73-4.62,7.28-4.62h52.2c1.29,0,1.28-.59.99-1.11-1.77-3.25-1.67-7.25.52-11.1l4.15-7.26c2-3.5-.53-7.85-4.56-7.85ZM332.83,60.38h-53.93c-2.52,0-3.4-2.04-1.95-4.58l28.25-49.5c1.99-3.47.77-6.3-2.7-6.3h-14.45c-3.47,0-7.91,2.83-9.89,6.3l-19.36,33.91-10.42,18.26c-1.98,3.48-.77,6.3,2.7,6.3h8.94c2.52,0,3.4,2.04,1.95,4.57l-6.72,11.78c-1.98,3.48-.77,6.3,2.71,6.3h59.43c3.47,0,7.92-2.82,9.9-6.3l8.25-14.45c1.98-3.47.77-6.29-2.7-6.29Z"/>
      <g>
        <g>
          <path class="cls-1" d="M20.69,147.26c0-2.24.43-4.36,1.29-6.38.86-2.01,2.03-3.78,3.52-5.31,1.49-1.53,3.24-2.72,5.26-3.58,2.01-.86,4.14-1.29,6.38-1.29h50.11v7.83h-50.11c-2.39,0-4.44.86-6.15,2.57s-2.57,3.77-2.57,6.15.86,4.55,2.57,6.26c1.72,1.72,3.76,2.57,6.15,2.57h44.97c2.24,0,4.36.43,6.38,1.29,2.01.86,3.76,2.05,5.26,3.58,1.49,1.53,2.67,3.3,3.52,5.31.86,2.01,1.29,4.14,1.29,6.38s-.43,4.47-1.29,6.49c-.86,2.01-2.03,3.77-3.52,5.26-1.49,1.49-3.24,2.69-5.26,3.58-2.01.89-4.14,1.34-6.38,1.34H20.69v-7.83h61.41c2.39,0,4.44-.86,6.15-2.57,1.71-1.72,2.57-3.8,2.57-6.26s-.86-4.44-2.57-6.15c-1.72-1.71-3.77-2.57-6.15-2.57h-44.97c-2.24,0-4.36-.45-6.38-1.34-2.01-.89-3.77-2.09-5.26-3.58-1.49-1.49-2.67-3.24-3.52-5.26-.86-2.01-1.29-4.18-1.29-6.49Z"/>
          <path class="cls-1" d="M190.83,130.71c2.61,0,5.03.5,7.27,1.51,2.24,1.01,4.21,2.37,5.93,4.08,1.72,1.72,3.06,3.71,4.03,5.99.97,2.28,1.45,4.72,1.45,7.33v39.71h-7.72v-39.71c0-1.57-.28-3.02-.84-4.36-.56-1.34-1.34-2.52-2.35-3.52s-2.18-1.81-3.52-2.41c-1.34-.6-2.76-.89-4.25-.89h-25.95v50.9h-7.72v-50.9h-36.91v50.9h-7.72v-58.61h78.3Z"/>
          <path class="cls-1" d="M246.76,151.07h40.05c3.43,0,6.56.86,9.4,2.57l1.79,1.01v-4.81c0-1.57-.3-3.02-.89-4.36-.6-1.34-1.4-2.53-2.41-3.58-1.01-1.04-2.18-1.86-3.52-2.46-1.34-.6-2.8-.9-4.36-.9h-47.65v-7.83h47.65c2.61,0,5.05.5,7.33,1.51,2.27,1.01,4.27,2.37,5.98,4.08,1.72,1.72,3.08,3.75,4.08,6.1,1.01,2.35,1.51,4.83,1.51,7.44v39.49h-7.72v-3.58l-1.79,1.01c-2.83,1.72-5.97,2.57-9.4,2.57h-40.05c-2.61,0-5.05-.5-7.33-1.51-2.28-1.01-4.27-2.39-5.98-4.14-1.72-1.75-3.08-3.78-4.08-6.1-1.01-2.31-1.51-4.77-1.51-7.38s.5-5.18,1.51-7.49c1.01-2.31,2.37-4.32,4.08-6.04,1.72-1.71,3.71-3.08,5.98-4.08,2.27-1.01,4.72-1.51,7.33-1.51ZM235.58,170.2c0,1.57.3,3.02.89,4.36.6,1.34,1.4,2.54,2.4,3.58,1.01,1.05,2.18,1.86,3.52,2.46,1.34.6,2.8.89,4.36.89h40.05c1.57,0,3.02-.3,4.36-.89,1.34-.6,2.52-1.42,3.52-2.46,1.01-1.04,1.81-2.24,2.41-3.58.6-1.34.89-2.8.89-4.36s-.3-3.04-.89-4.42c-.6-1.38-1.4-2.57-2.41-3.58s-2.18-1.81-3.52-2.41c-1.34-.6-2.8-.89-4.36-.89h-40.05c-1.57,0-3.02.3-4.36.89-1.34.6-2.52,1.4-3.52,2.41-1.01,1.01-1.81,2.2-2.4,3.58-.6,1.38-.89,2.85-.89,4.42Z"/>
          <path class="cls-1" d="M336.14,130.71v3.58l1.68-1.01c2.83-1.72,5.93-2.57,9.28-2.57h24.89v7.72h-24.89c-1.49,0-2.89.28-4.19.84-1.31.56-2.46,1.34-3.47,2.35-1.01,1.01-1.81,2.18-2.4,3.52-.6,1.34-.89,2.8-.89,4.36v39.82h-7.72v-58.61h7.72Z"/>
          <path class="cls-1" d="M394.7,111.13h7.72v19.58h18.51v7.83h-18.51v31.77c0,1.57.28,3.02.84,4.36.56,1.34,1.34,2.54,2.35,3.58,1.01,1.05,2.18,1.87,3.52,2.46,1.34.6,2.76.89,4.25.89h17.51v7.72h-17.51c-2.54,0-4.94-.5-7.22-1.51-2.28-1.01-4.27-2.37-5.98-4.08-1.72-1.72-3.06-3.73-4.03-6.04-.97-2.31-1.45-4.77-1.45-7.38v-59.17Z"/>
        </g>
        <g>
          <path class="cls-1" d="M143.3,263.54c0-1.26-.23-2.42-.71-3.53-.49-1.13-1.12-2.07-1.93-2.88-.82-.81-1.75-1.45-2.85-1.94-1.05-.46-2.21-.7-3.45-.7h-40.05c-1.26,0-2.39.23-3.46.7-1.1.49-2.03,1.13-2.85,1.94-.8.8-1.45,1.77-1.93,2.88-.48,1.11-.71,2.26-.71,3.53s.23,2.39.7,3.45c.49,1.1,1.15,2.08,1.97,2.93.81.84,1.74,1.49,2.82,1.97,1.06.47,2.19.7,3.45.7h40.05c1.25,0,2.41-.24,3.45-.7,1.09-.48,2.01-1.13,2.82-1.97.82-.85,1.48-1.84,1.98-2.94.47-1.06.7-2.19.7-3.45Z"/>
          <path class="cls-1" d="M335.14,267.23c.45-1.11.68-2.31.68-3.58v-20.69c0-2.55-.83-4.63-2.55-6.37-1.7-1.73-3.76-2.58-6.29-2.58h-39.71c-1.19,0-2.28.23-3.34.7-1.08.48-2.04,1.13-2.85,1.94s-1.42,1.73-1.87,2.8c-.45,1.08-.67,2.22-.67,3.5v20.69c0,1.27.23,2.47.68,3.58.45,1.11,1.06,2.03,1.86,2.84.81.81,1.77,1.46,2.85,1.94,1.06.47,2.15.7,3.34.7h39.71c1.25,0,2.41-.24,3.45-.7,1.08-.48,2.04-1.13,2.85-1.94.8-.8,1.41-1.73,1.86-2.84Z"/>
          <path class="cls-1" d="M234.51,234.93c-1.06-.47-2.19-.7-3.45-.7h-40.27c-1.26,0-2.39.23-3.46.7-1.09.49-2.05,1.14-2.85,1.94-.8.8-1.45,1.77-1.93,2.89-.48,1.1-.71,2.26-.71,3.53v20.13c0,1.27.23,2.43.71,3.53.49,1.13,1.15,2.13,1.96,2.97.8.83,1.75,1.5,2.82,1.97,1.06.47,2.19.7,3.45.7h40.27c1.26,0,2.39-.23,3.46-.7,1.07-.48,2.02-1.14,2.82-1.97.82-.84,1.48-1.84,1.96-2.97.48-1.11.71-2.26.71-3.53v-20.13c0-1.27-.23-2.42-.71-3.53-.48-1.11-1.13-2.08-1.93-2.88-.8-.8-1.76-1.46-2.85-1.94Z"/>
          <path class="cls-1" d="M444.94,203.36H32.89c-1.24,0-2.24,1-2.24,2.24v58.06c0,1.26.22,2.44.67,3.5.45,1.08,1.09,2.05,1.89,2.88.81.85,1.74,1.49,2.82,1.97,1.06.47,2.15.7,3.34.7h19.74v12.19h-19.74c-2.84,0-5.57-.57-8.12-1.7-2.52-1.12-4.76-2.65-6.66-4.55-1.91-1.91-3.43-4.18-4.51-6.76-1.08-2.57-1.63-5.35-1.63-8.25v-60.29h-.56c-9.88,0-17.9,8.01-17.9,17.9v64.21c0,9.88,8.01,17.9,17.9,17.9h160.75c1.24,0,2.24-1,2.24-2.24v-7.83h50.17c1.25,0,2.39-.24,3.49-.75,1.1-.51,2.07-1.2,2.88-2.06.82-.88,1.46-1.89,1.91-3.01.45-1.11.68-2.31.68-3.58v-.89c-2.88,1.35-5.86,2.01-8.95,2.01h-40.27c-2.91,0-5.69-.57-8.28-1.7-2.57-1.12-4.84-2.67-6.75-4.63-1.9-1.94-3.43-4.24-4.54-6.83-1.12-2.62-1.69-5.46-1.69-8.43v-20.13c0-2.98.57-5.8,1.7-8.39,1.12-2.56,2.64-4.83,4.54-6.77,1.91-1.95,4.18-3.51,6.75-4.62,2.58-1.13,5.37-1.7,8.27-1.7h40.27c3.11,0,6.12.67,8.95,2v-2h12.3v62.08c0,2.98-.57,5.81-1.69,8.43-1.11,2.59-2.64,4.89-4.54,6.84-.11.11-.22.23-.34.34-1.45,1.42-.51,3.86,1.52,3.86h197.68c9.88,0,17.9-8.01,17.9-17.9v-64.21c0-9.88-8.01-17.9-17.9-17.9ZM155.49,284.91h-12.19v-2.02c-2.73,1.33-5.74,2.02-8.95,2.02h-40.05c-2.91,0-5.68-.57-8.23-1.7-2.52-1.12-4.77-2.67-6.68-4.62-1.9-1.94-3.42-4.21-4.54-6.77-1.13-2.58-1.7-5.37-1.7-8.28s.57-5.8,1.7-8.39c1.12-2.56,2.65-4.83,4.55-6.73,1.9-1.9,4.14-3.43,6.66-4.55,2.55-1.13,5.32-1.7,8.23-1.7h40.05c3.19,0,6.19.68,8.95,2.02v-1.01c0-1.24-.24-2.41-.7-3.46-.49-1.11-1.14-2.07-1.97-2.94-.81-.84-1.73-1.48-2.82-1.97-1.05-.47-2.21-.7-3.45-.7h-49.89v-12.3h49.89c2.91,0,5.68.57,8.23,1.7,2.51,1.11,4.75,2.64,6.66,4.54,1.91,1.91,3.44,4.2,4.56,6.8,1.12,2.62,1.69,5.42,1.69,8.32v41.72ZM348.01,263.65c0,2.91-.57,5.69-1.7,8.28-1.11,2.55-2.62,4.81-4.48,6.71-1.86,1.91-4.09,3.45-6.62,4.56-2.55,1.13-5.32,1.7-8.23,1.7h-39.71c-2.84,0-5.57-.57-8.12-1.7-2.52-1.12-4.76-2.65-6.66-4.55-1.91-1.91-3.43-4.18-4.51-6.76-1.08-2.57-1.63-5.35-1.63-8.25v-20.69c0-2.9.55-5.66,1.63-8.2,1.08-2.53,2.59-4.78,4.5-6.69s4.15-3.44,6.66-4.55c2.55-1.13,5.28-1.7,8.12-1.7h39.71c2.91,0,5.68.57,8.23,1.7,2.52,1.11,4.75,2.65,6.62,4.56,1.86,1.91,3.36,4.14,4.48,6.65,1.13,2.55,1.7,5.32,1.7,8.23v20.69ZM442.92,273.37c-.97,2.27-2.31,4.28-4,5.96-1.67,1.68-3.67,3.04-5.93,4.04-2.3,1.02-4.75,1.53-7.29,1.53h-63.65v-12.3h63.65c1.78,0,3.28-.63,4.57-1.92,1.29-1.29,1.92-2.82,1.92-4.68s-.63-3.28-1.92-4.57c-1.29-1.29-2.78-1.91-4.57-1.91h-44.97c-2.54,0-4.99-.52-7.29-1.54-2.26-1-4.25-2.36-5.93-4.04-1.69-1.68-3.03-3.69-4-5.96-.97-2.28-1.47-4.76-1.47-7.36s.49-4.97,1.47-7.25c.96-2.26,2.3-4.28,3.98-6,1.69-1.73,3.7-3.1,5.98-4.08,2.29-.97,4.73-1.47,7.25-1.47h52.35v12.3h-52.35c-1.78,0-3.28.63-4.57,1.92-1.29,1.29-1.92,2.79-1.92,4.57s.63,3.39,1.92,4.68c1.29,1.29,2.78,1.92,4.57,1.92h44.97c2.53,0,4.96.49,7.25,1.47,2.27.97,4.28,2.34,5.98,4.07,1.68,1.72,3.02,3.74,3.98,6,.97,2.29,1.47,4.73,1.47,7.25s-.49,5.08-1.46,7.36Z"/>
        </g>
      </g>
    </g>
  </g>
</svg>