<?xml version="1.0" encoding="UTF-8"?>
<svg id="Camada_2" data-name="Camada 2" xmlns="http://www.w3.org/2000/svg" viewBox="0 0 894.73 312.22">
  <defs>
    <style>
      .cls-1 {
        fill: #6514db;
      }
    </style>
  </defs>
  <g id="Camada_1-2" data-name="Camada 1">
    <g>
      <path class="cls-1" d="M467.79,74.52h-98.75c-4.73,0-10.77-1.92-13.5-6.64-1.62-2.81-1.62-7.41,0-10.22,2.73-4.73,8.77-6.64,13.5-6.64h103.39c6.48,0,14.83-5.29,18.58-11.79l15.61-27.06c3.75-6.5,1.53-11.78-4.97-11.78h-108.72c-6.5,0-14.83,5.28-18.58,11.78l-9.66,16.73c-2.73,4.73-8.77,8.56-13.5,8.56h-57.84c-6.5,0-14.83,5.28-18.58,11.79l-7.81,13.53-7.81,13.51c-3.74,6.5-1.51,11.79,4.99,11.79h87.05c4.73,0,10.77,1.92,13.5,6.66.81,1.41,1.22,3.25,1.22,5.1s-.41,3.69-1.22,5.1c-2.73,4.73-8.77,6.64-13.5,6.64h-62.47c-6.5,0-14.84,5.29-18.6,11.79l-15.61,27.04c-3.75,6.51-1.53,11.79,4.99,11.79h67.79c6.5,0,14.84-5.28,18.58-11.79l9.66-16.71c2.73-4.73,8.77-8.56,13.5-8.56h96.72c2.38,0,2.37-1.09,1.84-2.06-3.28-6.02-3.1-13.43.96-20.56l7.68-13.46c3.7-6.48-.98-14.54-8.45-14.54ZM635.26,111.87h-99.92c-4.68,0-6.3-3.78-3.62-8.48l52.35-91.71C587.75,5.25,585.49,0,579.06,0h-26.78c-6.43,0-14.65,5.25-18.32,11.68l-35.88,62.84-19.31,33.83c-3.67,6.45-1.43,11.68,5,11.68h16.57c4.68,0,6.3,3.78,3.62,8.46l-12.46,21.83c-3.67,6.45-1.43,11.68,5.02,11.68h110.12c6.43,0,14.67-5.23,18.34-11.68l15.28-26.78c3.67-6.43,1.43-11.66-5-11.66Z"/>
      <g>
        <g>
          <path class="cls-1" d="M0,251.54c0-2.23.43-4.36,1.29-6.37.86-2.01,2.03-3.78,3.52-5.31,1.49-1.53,3.24-2.72,5.25-3.58,2.01-.86,4.13-1.29,6.37-1.29h50.06v7.82H16.43c-2.39,0-4.43.86-6.15,2.57s-2.57,3.76-2.57,6.15.86,4.54,2.57,6.26c1.71,1.71,3.76,2.57,6.15,2.57h44.92c2.23,0,4.36.43,6.37,1.29,2.01.86,3.76,2.05,5.25,3.58,1.49,1.53,2.66,3.3,3.52,5.31.86,2.01,1.29,4.13,1.29,6.37s-.43,4.47-1.29,6.48c-.86,2.01-2.03,3.76-3.52,5.25-1.49,1.49-3.24,2.68-5.25,3.58-2.01.89-4.13,1.34-6.37,1.34H0v-7.82h61.35c2.38,0,4.43-.86,6.15-2.57,1.71-1.71,2.57-3.8,2.57-6.26s-.86-4.43-2.57-6.15c-1.71-1.71-3.76-2.57-6.15-2.57H16.43c-2.23,0-4.36-.45-6.37-1.34-2.01-.89-3.76-2.08-5.25-3.57-1.49-1.49-2.66-3.24-3.52-5.25-.86-2.01-1.29-4.17-1.29-6.48Z"/>
          <path class="cls-1" d="M169.96,235c2.61,0,5.03.5,7.26,1.51,2.23,1.01,4.21,2.37,5.92,4.08,1.71,1.72,3.05,3.71,4.02,5.98.97,2.27,1.45,4.71,1.45,7.32v39.67h-7.71v-39.67c0-1.56-.28-3.02-.84-4.36-.56-1.34-1.34-2.51-2.35-3.52s-2.18-1.81-3.52-2.4c-1.34-.59-2.76-.89-4.25-.89h-25.92v50.84h-7.71v-50.84h-36.88v50.84h-7.71v-58.55h78.22Z"/>
          <path class="cls-1" d="M225.83,255.33h40c3.43,0,6.55.86,9.39,2.57l1.79,1.01v-4.8c0-1.56-.3-3.02-.89-4.36-.6-1.34-1.4-2.53-2.4-3.58-1.01-1.04-2.18-1.86-3.52-2.46-1.34-.6-2.79-.89-4.36-.89h-47.6v-7.82h47.6c2.61,0,5.05.5,7.32,1.51,2.27,1.01,4.26,2.37,5.98,4.08,1.71,1.72,3.07,3.74,4.08,6.09,1.01,2.35,1.51,4.82,1.51,7.43v39.44h-7.71v-3.58l-1.79,1.01c-2.83,1.71-5.96,2.57-9.39,2.57h-40c-2.61,0-5.05-.5-7.32-1.51-2.27-1.01-4.26-2.38-5.98-4.13-1.71-1.75-3.07-3.78-4.08-6.09-1.01-2.31-1.51-4.77-1.51-7.37s.5-5.18,1.51-7.49c1.01-2.31,2.36-4.32,4.08-6.03,1.71-1.71,3.7-3.07,5.98-4.08,2.27-1.01,4.71-1.51,7.32-1.51ZM214.66,274.44c0,1.56.3,3.02.89,4.36.59,1.34,1.4,2.53,2.4,3.58,1.01,1.04,2.18,1.86,3.52,2.46,1.34.6,2.79.89,4.36.89h40c1.56,0,3.02-.3,4.36-.89,1.34-.6,2.51-1.41,3.52-2.46,1.01-1.04,1.8-2.23,2.4-3.58.59-1.34.89-2.79.89-4.36s-.3-3.03-.89-4.41c-.6-1.38-1.4-2.57-2.4-3.58s-2.18-1.8-3.52-2.4c-1.34-.59-2.79-.89-4.36-.89h-40c-1.56,0-3.02.3-4.36.89-1.34.6-2.51,1.4-3.52,2.4-1.01,1.01-1.81,2.2-2.4,3.58-.6,1.38-.89,2.85-.89,4.41Z"/>
          <path class="cls-1" d="M315.12,235v3.58l1.68-1.01c2.83-1.71,5.92-2.57,9.27-2.57h24.86v7.71h-24.86c-1.49,0-2.89.28-4.19.84-1.3.56-2.46,1.34-3.46,2.35-1.01,1.01-1.81,2.18-2.4,3.52-.6,1.34-.89,2.79-.89,4.36v39.78h-7.71v-58.55h7.71Z"/>
          <path class="cls-1" d="M373.61,215.44h7.71v19.55h18.49v7.82h-18.49v31.74c0,1.56.28,3.02.84,4.36.56,1.34,1.34,2.53,2.35,3.57,1.01,1.04,2.18,1.86,3.52,2.46,1.34.6,2.75.89,4.25.89h17.49v7.71h-17.49c-2.53,0-4.94-.5-7.21-1.51-2.27-1.01-4.27-2.36-5.98-4.08-1.72-1.71-3.06-3.72-4.02-6.03-.97-2.31-1.45-4.77-1.45-7.37v-59.11Z"/>
        </g>
        <g>
          <path class="cls-1" d="M575.52,272.44c0-1.26-.23-2.42-.71-3.53-.49-1.13-1.12-2.07-1.93-2.88-.82-.81-1.75-1.45-2.85-1.94-1.05-.46-2.21-.7-3.45-.7h-40c-1.26,0-2.39.23-3.45.7-1.1.49-2.03,1.13-2.84,1.94-.8.8-1.45,1.77-1.93,2.88-.48,1.11-.71,2.26-.71,3.53s.23,2.39.7,3.45c.49,1.1,1.15,2.08,1.97,2.93.81.84,1.73,1.49,2.82,1.97,1.06.47,2.19.7,3.45.7h40c1.24,0,2.41-.24,3.45-.7,1.09-.48,2.01-1.13,2.82-1.97.82-.85,1.48-1.83,1.97-2.94.47-1.06.7-2.19.7-3.45Z"/>
          <path class="cls-1" d="M767.17,276.13c.45-1.11.67-2.31.67-3.58v-20.67c0-2.54-.83-4.62-2.54-6.37-1.7-1.73-3.76-2.57-6.28-2.57h-39.67c-1.18,0-2.28.23-3.34.7-1.08.48-2.04,1.13-2.85,1.94s-1.42,1.73-1.86,2.8c-.45,1.08-.67,2.22-.67,3.5v20.67c0,1.27.23,2.47.67,3.58.45,1.11,1.06,2.03,1.86,2.83.81.81,1.77,1.46,2.85,1.94,1.06.47,2.15.7,3.34.7h39.67c1.24,0,2.41-.24,3.45-.7,1.08-.48,2.04-1.13,2.85-1.94.8-.8,1.41-1.73,1.86-2.83Z"/>
          <path class="cls-1" d="M666.64,243.86c-1.06-.47-2.19-.7-3.45-.7h-40.23c-1.26,0-2.39.23-3.45.7-1.08.48-2.04,1.14-2.84,1.94-.8.8-1.45,1.77-1.93,2.88-.48,1.1-.71,2.26-.71,3.53v20.11c0,1.27.23,2.42.71,3.52.49,1.13,1.15,2.13,1.96,2.97.8.83,1.75,1.49,2.82,1.97,1.06.47,2.19.7,3.45.7h40.23c1.26,0,2.39-.23,3.45-.7,1.07-.48,2.02-1.14,2.82-1.97.82-.84,1.47-1.84,1.96-2.97.48-1.1.71-2.26.71-3.52v-20.11c0-1.27-.23-2.42-.71-3.53-.48-1.11-1.13-2.08-1.93-2.88-.8-.8-1.76-1.46-2.85-1.94Z"/>
          <path class="cls-1" d="M876.85,212.32h-411.62c-1.23,0-2.23,1-2.23,2.23v57.99c0,1.26.22,2.44.67,3.5.45,1.08,1.09,2.05,1.89,2.88.81.84,1.73,1.49,2.82,1.97,1.06.47,2.15.7,3.34.7h19.72v12.18h-19.72c-2.84,0-5.57-.57-8.11-1.7-2.52-1.12-4.76-2.64-6.66-4.54-1.91-1.91-3.43-4.18-4.5-6.75-1.08-2.57-1.63-5.34-1.63-8.24v-60.23h-.56c-9.87,0-17.88,8-17.88,17.88v64.14c0,9.87,8,17.88,17.88,17.88h160.58c1.23,0,2.23-1,2.23-2.23v-7.82h50.12c1.25,0,2.39-.24,3.48-.75,1.1-.51,2.07-1.2,2.87-2.06.82-.88,1.46-1.89,1.91-3,.45-1.1.67-2.31.67-3.57v-.89c-2.88,1.35-5.85,2.01-8.94,2.01h-40.23c-2.91,0-5.69-.57-8.27-1.69-2.56-1.12-4.83-2.67-6.74-4.62-1.9-1.94-3.42-4.23-4.54-6.83-1.12-2.62-1.69-5.45-1.69-8.42v-20.11c0-2.98.57-5.79,1.69-8.38,1.11-2.56,2.64-4.83,4.53-6.76,1.91-1.95,4.18-3.51,6.74-4.62,2.58-1.12,5.36-1.7,8.27-1.7h40.23c3.11,0,6.11.67,8.94,2v-2h12.29v62.02c0,2.97-.57,5.81-1.69,8.42-1.11,2.59-2.64,4.89-4.54,6.83-.11.11-.22.23-.34.34-1.45,1.41-.51,3.86,1.52,3.86h197.48c9.87,0,17.88-8,17.88-17.88v-64.14c0-9.87-8-17.88-17.88-17.88ZM587.7,293.78h-12.18v-2.01c-2.72,1.33-5.73,2.01-8.94,2.01h-40c-2.91,0-5.68-.57-8.22-1.7-2.52-1.12-4.77-2.67-6.67-4.61-1.9-1.94-3.42-4.21-4.53-6.76-1.12-2.58-1.69-5.36-1.69-8.27s.57-5.8,1.69-8.38c1.12-2.56,2.65-4.82,4.55-6.72,1.9-1.9,4.14-3.43,6.65-4.54,2.55-1.13,5.31-1.7,8.22-1.7h40c3.19,0,6.19.68,8.94,2.02v-1.01c0-1.24-.24-2.4-.7-3.45-.49-1.11-1.14-2.07-1.97-2.93-.81-.84-1.73-1.48-2.82-1.97-1.05-.46-2.21-.7-3.45-.7h-49.84v-12.29h49.84c2.91,0,5.67.57,8.22,1.7,2.51,1.11,4.74,2.63,6.65,4.54,1.91,1.91,3.44,4.2,4.55,6.79,1.12,2.61,1.69,5.41,1.69,8.31v41.68ZM780.02,272.55c0,2.9-.57,5.69-1.69,8.27-1.11,2.55-2.61,4.8-4.48,6.7-1.86,1.91-4.09,3.44-6.62,4.56-2.55,1.13-5.31,1.7-8.22,1.7h-39.67c-2.84,0-5.57-.57-8.11-1.7-2.52-1.12-4.76-2.64-6.66-4.54-1.91-1.91-3.43-4.18-4.5-6.75-1.08-2.57-1.63-5.34-1.63-8.24v-20.67c0-2.9.55-5.66,1.63-8.2,1.08-2.53,2.59-4.77,4.5-6.68s4.14-3.43,6.66-4.54c2.55-1.13,5.28-1.7,8.11-1.7h39.67c2.91,0,5.67.57,8.22,1.7,2.52,1.11,4.74,2.64,6.61,4.55,1.86,1.9,3.36,4.14,4.47,6.64,1.13,2.55,1.7,5.32,1.7,8.22v20.67ZM874.83,282.25c-.97,2.27-2.31,4.27-4,5.96-1.67,1.68-3.67,3.03-5.92,4.04-2.29,1.02-4.74,1.53-7.28,1.53h-63.58v-12.29h63.58c1.78,0,3.28-.63,4.57-1.91,1.29-1.29,1.92-2.82,1.92-4.68s-.63-3.28-1.92-4.57c-1.29-1.29-2.78-1.91-4.56-1.91h-44.92c-2.54,0-4.99-.52-7.28-1.53-2.25-1-4.25-2.36-5.92-4.04-1.68-1.68-3.03-3.69-3.99-5.96-.97-2.28-1.46-4.75-1.46-7.36s.49-4.97,1.46-7.25c.96-2.25,2.3-4.27,3.98-5.99,1.69-1.73,3.7-3.1,5.98-4.07,2.29-.97,4.72-1.46,7.25-1.46h52.3v12.29h-52.3c-1.78,0-3.28.63-4.57,1.92-1.29,1.29-1.92,2.78-1.92,4.57s.63,3.39,1.92,4.68c1.29,1.29,2.78,1.92,4.57,1.92h44.92c2.52,0,4.96.49,7.24,1.46,2.27.96,4.28,2.33,5.98,4.07,1.68,1.72,3.02,3.74,3.98,5.99.97,2.29,1.46,4.73,1.46,7.25s-.49,5.07-1.46,7.36Z"/>
        </g>
      </g>
    </g>
  </g>
</svg>